HIERARCHY
ROOT Hips
{
	OFFSET 0.000000 88.474243 0.000000
	CHANNELS 6 Xposition Yposition Zposition Zrotation Yrotation Xrotation 
	JOINT Hips_Spine
	{
		OFFSET 0.000000 0.000000 0.000000
		CHANNELS 3 Zrotation Yrotation Xrotation
		JOINT Spine
		{
			OFFSET 0.005100 8.711998 -0.691000
			CHANNELS 3 Zrotation Yrotation Xrotation
			JOINT Spine1
			{
				OFFSET -0.009200 8.660301 -1.275000
				CHANNELS 3 Zrotation Yrotation Xrotation
				JOINT Spine2
				{
					OFFSET 0.006300 9.852501 -1.857000
					CHANNELS 3 Zrotation Yrotation Xrotation
					JOINT Spine2_Neck
					{
						OFFSET 0.000000 0.000000 0.000000
						CHANNELS 3 Zrotation Yrotation Xrotation
						JOINT Neck
						{
							OFFSET 0.016300 11.420799 -0.263300
							CHANNELS 3 Zrotation Yrotation Xrotation
							End Site #name: Head
							{
								OFFSET -0.019200 9.262405 2.362500
							}
						}
					}
					JOINT Spine2_LeftShoulder
					{
						OFFSET 0.000000 0.000000 0.000000
						CHANNELS 3 Zrotation Yrotation Xrotation
						JOINT LeftShoulder
						{
							OFFSET 5.616900 6.732201 -0.345700
							CHANNELS 3 Zrotation Yrotation Xrotation
							JOINT LeftArm
							{
								OFFSET 10.664888 -0.183372 -2.440700
								CHANNELS 3 Zrotation Yrotation Xrotation
								JOINT LeftForeArm
								{
									OFFSET 27.459126 0.000000 0.000000
									CHANNELS 3 Zrotation Yrotation Xrotation
									End Site #name: LeftHand
									{
										OFFSET 21.306858 0.000000 0.000000
									}
								}
							}
						}
					}
					JOINT Spine2_RightShoulder
					{
						OFFSET 0.000000 0.000000 0.000000
						CHANNELS 3 Zrotation Yrotation Xrotation
						JOINT RightShoulder
						{
							OFFSET -5.580300 6.737503 -0.344400
							CHANNELS 3 Zrotation Yrotation Xrotation
							JOINT RightArm
							{
								OFFSET -10.679335 -0.188484 -2.383900
								CHANNELS 3 Zrotation Yrotation Xrotation
								JOINT RightForeArm
								{
									OFFSET -27.503529 0.000000 0.000000
									CHANNELS 3 Zrotation Yrotation Xrotation
									End Site #name: RightHand
									{
										OFFSET -21.306808 0.000000 0.000000
									}
								}
							}
						}
					}
				}
			}
		}
	}
	JOINT Hips_LeftUpLeg
	{
		OFFSET 0.000000 0.000000 0.000000
		CHANNELS 3 Zrotation Yrotation Xrotation
		JOINT LeftUpLeg
		{
			OFFSET 6.857700 -6.739601 0.312100
			CHANNELS 3 Zrotation Yrotation Xrotation
			JOINT LeftLeg
			{
				OFFSET -0.367590 -34.731552 -4.572400
				CHANNELS 3 Zrotation Yrotation Xrotation
				End Site #name: LeftFoot
				{
					OFFSET 0.367590 -34.656704 -6.067400
				}
			}
		}
	}
	JOINT Hips_RightUpLeg
	{
		OFFSET 0.000000 0.000000 0.000000
		CHANNELS 3 Zrotation Yrotation Xrotation
		JOINT RightUpLeg
		{
			OFFSET -6.876100 -6.733299 0.301000
			CHANNELS 3 Zrotation Yrotation Xrotation
			JOINT RightLeg
			{
				OFFSET 0.347353 -34.795158 -4.515900
				CHANNELS 3 Zrotation Yrotation Xrotation
				End Site #name: RightFoot
				{
					OFFSET -0.347353 -34.589367 -6.070300
				}
			}
		}
	}
}
MOTION
Frames: 13
Frame Time: 0.041667
-3.724652 -1.249249 -3.303800 -7.608867 43.292297 -0.740328 0.000000 -0.000000 -0.000000 5.552292 1.748466 -0.358535 2.472614 -0.036220 1.747910 0.000000 0.000000 0.000000 3.119873 0.015228 2.537859 -4.276580 -7.588926 -1.433018 2.260720 -0.038474 1.773263 -7.839069 -1.114881 -1.020613 -81.867491 -14.846667 -8.671780 -1.902227 12.509288 0.014688 2.439691 -0.095918 1.429159 12.071312 18.154606 3.407678 41.360086 43.288664 -21.695674 177.519125 36.958565 -176.554392 0.000000 0.000000 -0.000000 -0.543903 11.157151 -21.010993 -11.813126 -33.695767 7.762209 0.000000 0.000000 0.000000 4.691149 -4.015874 -7.820464 1.450159 -0.477109 2.500558 
-3.879059 -1.281062 -3.394766 -7.481977 42.589235 -0.571043 0.000000 -0.000000 -0.000000 5.587625 1.624925 -0.323871 2.502831 -0.076524 1.774278 0.000000 0.000000 0.000000 3.143502 -0.013140 2.551484 -4.228590 -7.608577 -1.425939 2.267450 -0.056167 1.776733 -7.773584 -1.124954 -1.050415 -82.073039 -14.870616 -8.858382 -1.905317 12.509783 0.008796 2.451913 -0.155114 1.453384 12.123091 18.191551 3.415997 41.371160 43.563219 -21.602461 177.518893 36.865538 -176.516699 0.000000 -0.000000 -0.000000 -0.127345 11.297379 -21.294496 -12.207633 -33.958601 9.494842 0.000000 0.000000 0.000000 4.864382 -4.025388 -7.896281 1.344774 -0.372997 2.637554 
-4.033704 -1.313756 -3.483864 -7.351805 41.844313 -0.392876 0.000000 -0.000000 -0.000000 5.617804 1.502095 -0.280644 2.530836 -0.112648 1.798500 0.000000 0.000000 0.000000 3.164007 -0.039211 2.566111 -4.189245 -7.631037 -1.423133 2.272940 -0.074130 1.778542 -7.696714 -1.145987 -1.087149 -82.312251 -14.859286 -9.069481 -1.908984 12.485188 0.004441 2.462084 -0.208498 1.476854 12.168329 18.223299 3.427546 41.420930 43.882653 -21.459279 177.517427 36.763668 -176.482133 0.000000 -0.000000 -0.000000 0.294198 11.475226 -21.750600 -12.519290 -33.820982 11.519333 0.000000 0.000000 0.000000 5.048704 -4.059765 -7.963556 1.224327 -0.265706 2.757526 
-4.188287 -1.347676 -3.570605 -7.226180 41.082656 -0.222274 0.000000 -0.000000 -0.000000 5.634698 1.380750 -0.230965 2.556123 -0.143814 1.820635 0.000000 0.000000 0.000000 3.181505 -0.062860 2.578271 -4.161770 -7.660490 -1.429214 2.276631 -0.092899 1.779267 -7.612909 -1.194697 -1.117373 -82.594464 -14.844135 -9.317567 -1.911731 12.454559 0.004956 2.471486 -0.258925 1.502966 12.207662 18.251882 3.442968 41.502822 44.239952 -21.277399 177.517447 36.667058 -176.449712 0.000000 -0.000000 -0.000000 0.682620 11.712671 -22.261183 -12.738733 -33.480043 13.533195 0.000000 0.000000 0.000000 5.234222 -4.119751 -8.005691 1.099129 -0.145922 2.844946 
-4.340132 -1.382643 -3.654049 -7.122781 40.386433 -0.086964 0.000000 -0.000000 -0.000000 5.647143 1.265578 -0.185711 2.581204 -0.169363 1.839716 0.000000 0.000000 0.000000 3.198480 -0.083169 2.591236 -4.150730 -7.689336 -1.445834 2.281418 -0.108596 1.779239 -7.518234 -1.268273 -1.150675 -82.890996 -14.830113 -9.541663 -1.914697 12.432581 0.005543 2.481696 -0.302823 1.530838 12.260851 18.275913 3.464974 41.636038 44.624259 -21.035419 177.517012 36.571414 -176.421768 0.000000 -0.000000 -0.000000 1.101063 11.900698 -22.740969 -12.953203 -33.037165 15.436774 0.000000 0.000000 0.000000 5.422007 -4.247610 -8.001353 0.981572 -0.014362 2.882109 
-4.487101 -1.418103 -3.734451 -7.031939 39.697057 0.021900 0.000000 -0.000000 -0.000000 5.647251 1.153387 -0.144861 2.605604 -0.187340 1.854324 0.000000 0.000000 0.000000 3.215498 -0.101258 2.603500 -4.163115 -7.718326 -1.472046 2.287645 -0.118745 1.775841 -7.414635 -1.366822 -1.187493 -83.218107 -14.799896 -9.785513 -1.918598 12.420351 0.006918 2.494961 -0.340153 1.559446 12.325060 18.290236 3.490731 41.789985 45.024691 -20.767054 177.520527 36.451686 -176.396001 0.000000 -0.000000 -0.000000 1.500994 12.039843 -23.244516 -13.113263 -32.382602 17.306052 0.000000 0.000000 0.000000 5.618045 -4.464518 -7.960961 0.874686 0.166331 2.902159 
-4.627175 -1.453412 -3.812848 -6.952361 39.008997 0.101113 0.000000 -0.000000 -0.000000 5.632325 1.043565 -0.098715 2.634096 -0.200003 1.866360 0.000000 0.000000 0.000000 3.234134 -0.116146 2.620036 -4.189263 -7.739745 -1.511405 2.296909 -0.121572 1.773532 -7.295559 -1.504110 -1.227486 -83.590791 -14.769251 -10.038200 -1.923963 12.421652 0.007433 2.516174 -0.363363 1.590161 12.412941 18.307238 3.523436 41.984645 45.441405 -20.448859 177.525418 36.361270 -176.374422 0.000000 -0.000000 -0.000000 1.843469 12.175975 -23.762494 -13.192110 -31.549864 19.027493 0.000000 0.000000 0.000000 5.807862 -4.774672 -7.910508 0.774717 0.387520 2.933260 
-4.758846 -1.488023 -3.890655 -6.875207 38.351863 0.161698 0.000000 -0.000000 -0.000000 5.593692 0.943628 -0.049608 2.668882 -0.205286 1.880202 0.000000 0.000000 0.000000 3.259736 -0.126480 2.643302 -4.200353 -7.745008 -1.569316 2.312832 -0.117284 1.777645 -7.167307 -1.690606 -1.270003 -84.010875 -14.702132 -10.288613 -1.929722 12.431040 0.010957 2.548941 -0.379251 1.630985 12.526385 18.317208 3.557697 42.189285 45.857926 -20.140220 177.536643 36.247144 -176.351446 0.000000 -0.000000 -0.000000 2.116624 12.297439 -24.234027 -13.160724 -30.611054 20.487202 0.000000 0.000000 0.000000 5.983196 -5.089612 -7.850972 0.668919 0.594694 2.963618 
-4.880807 -1.521629 -3.968605 -6.797969 37.735086 0.203752 0.000000 -0.000000 -0.000000 5.534239 0.857867 0.005741 2.710955 -0.203100 1.896709 0.000000 0.000000 0.000000 3.293033 -0.131457 2.675575 -4.200866 -7.736376 -1.644430 2.337315 -0.104402 1.786212 -7.033744 -1.910164 -1.322433 -84.491897 -14.606727 -10.571285 -1.934150 12.447921 0.016724 2.592784 -0.384925 1.674906 12.650041 18.373558 3.597990 42.409899 46.277383 -19.829358 177.549641 36.101619 -176.330351 0.000000 -0.000000 -0.000000 2.336307 12.380403 -24.615748 -13.018184 -29.612584 21.596887 0.000000 0.000000 0.000000 6.140059 -5.354718 -7.796957 0.569002 0.766355 2.992684 
-4.991006 -1.553959 -4.047420 -6.730275 37.192121 0.221846 0.000000 -0.000000 -0.000000 5.455888 0.795142 0.068961 2.761514 -0.192077 1.913409 0.000000 0.000000 0.000000 3.332461 -0.129501 2.714176 -4.203701 -7.709671 -1.727543 2.368433 -0.081925 1.799092 -6.892966 -2.176432 -1.382148 -85.010146 -14.476315 -10.869846 -1.938702 12.490089 0.021871 2.648482 -0.379174 1.722158 12.783552 18.468855 3.637342 42.635296 46.722579 -19.508843 177.565310 35.956381 -176.310645 0.000000 -0.000000 -0.000000 2.533006 12.424456 -24.905823 -12.774411 -28.589249 22.347541 0.000000 0.000000 0.000000 6.275533 -5.575519 -7.743025 0.476801 0.869236 3.016626 
-5.087136 -1.584761 -4.127522 -6.671955 36.778968 0.216904 0.000000 -0.000000 -0.000000 5.365471 0.742953 0.132833 2.818481 -0.175688 1.930377 0.000000 0.000000 0.000000 3.372849 -0.120874 2.754318 -4.211181 -7.664661 -1.811032 2.403355 -0.057566 1.811694 -6.729097 -2.487764 -1.446960 -85.565441 -14.317571 -11.177533 -1.944400 12.530503 0.027281 2.710943 -0.361793 1.767780 12.949531 18.557279 3.671643 42.900159 47.131988 -19.171227 177.581944 35.791830 -176.292743 0.000000 -0.000000 -0.000000 2.673804 12.436868 -25.102502 -12.355406 -27.516514 22.685372 0.000000 0.000000 0.000000 6.395230 -5.732096 -7.695066 0.410618 0.949456 3.041931 
-5.166927 -1.613796 -4.208943 -6.623468 36.517742 0.192262 0.000000 -0.000000 -0.000000 5.293173 0.714985 0.184040 2.868009 -0.149925 1.945920 0.000000 0.000000 0.000000 3.411436 -0.106056 2.792877 -4.226321 -7.603710 -1.885128 2.441077 -0.031018 1.828203 -6.551149 -2.835129 -1.506577 -86.119354 -14.125957 -11.486058 -1.949860 12.574509 0.034477 2.774225 -0.334729 1.803256 13.112828 18.647048 3.699801 43.178499 47.502459 -18.839644 177.596466 35.577151 -176.280809 0.000000 -0.000000 -0.000000 2.745187 12.414337 -25.191468 -11.798970 -26.441388 22.575603 0.000000 0.000000 0.000000 6.492892 -5.854410 -7.658896 0.351429 0.991142 3.077372 
-5.228209 -1.640793 -4.291506 -6.585033 36.443037 0.145266 0.000000 -0.000000 -0.000000 5.216775 0.699057 0.230879 2.901051 -0.116132 1.957758 0.000000 0.000000 0.000000 3.443184 -0.084995 2.823151 -4.249275 -7.524552 -1.956159 2.477813 -0.000478 1.845656 -6.455608 -2.939966 -1.583093 -86.644050 -13.926540 -11.790208 -1.952528 12.633915 0.042188 2.833273 -0.297842 1.829603 13.271870 18.723579 3.725787 43.472876 47.790292 -18.486105 177.610208 35.409245 -176.270027 0.000000 -0.000000 -0.000000 2.732683 12.353115 -25.169674 -11.216718 -25.454839 22.025969 0.000000 0.000000 0.000000 6.563085 -5.931518 -7.640277 0.300512 1.000894 3.117584 
